<?xml version="1.0" encoding="UTF-8"?>
<svg xmlns="http://www.w3.org/2000/svg" xmlns:xlink="http://www.w3.org/1999/xlink" width="20px" height="20px" viewBox="0 0 20 20" version="1.1">
<g id="surface1">
<path style=" stroke:none;fill-rule:nonzero;fill:rgb(0%,0%,0%);fill-opacity:1;" d="M 15.757812 0 L 4.242188 0 C 3.382812 0 2.683594 0.699219 2.683594 1.558594 L 2.683594 18.441406 C 2.683594 19.300781 3.382812 20 4.242188 20 L 15.757812 20 C 16.617188 20 17.316406 19.300781 17.316406 18.441406 L 17.316406 1.558594 C 17.316406 0.699219 16.617188 0 15.757812 0 Z M 16.574219 18.441406 C 16.574219 18.890625 16.207031 19.257812 15.757812 19.257812 L 4.242188 19.257812 C 3.792969 19.257812 3.425781 18.890625 3.425781 18.441406 L 3.425781 1.558594 C 3.425781 1.109375 3.792969 0.742188 4.242188 0.742188 L 15.757812 0.742188 C 16.207031 0.742188 16.574219 1.109375 16.574219 1.558594 Z M 16.574219 18.441406 "/>
<path style=" stroke:none;fill-rule:nonzero;fill:rgb(0%,0%,0%);fill-opacity:1;" d="M 14.925781 1.996094 L 5.074219 1.996094 C 4.871094 1.996094 4.703125 2.160156 4.703125 2.367188 L 4.703125 5.582031 C 4.703125 5.789062 4.871094 5.953125 5.074219 5.953125 L 14.925781 5.953125 C 15.128906 5.953125 15.296875 5.789062 15.296875 5.582031 L 15.296875 2.367188 C 15.296875 2.160156 15.128906 1.996094 14.925781 1.996094 Z M 14.554688 5.210938 L 5.445312 5.210938 L 5.445312 2.738281 L 14.554688 2.738281 Z M 14.554688 5.210938 "/>
<path style=" stroke:none;fill-rule:nonzero;fill:rgb(0%,0%,0%);fill-opacity:1;" d="M 7.230469 7.09375 L 5.074219 7.09375 C 4.871094 7.09375 4.703125 7.257812 4.703125 7.464844 L 4.703125 9.78125 C 4.703125 9.984375 4.871094 10.152344 5.074219 10.152344 L 7.230469 10.152344 C 7.4375 10.152344 7.601562 9.984375 7.601562 9.78125 L 7.601562 7.464844 C 7.601562 7.257812 7.4375 7.09375 7.230469 7.09375 Z M 6.859375 9.410156 L 5.445312 9.410156 L 5.445312 7.835938 L 6.859375 7.835938 Z M 6.859375 9.410156 "/>
<path style=" stroke:none;fill-rule:nonzero;fill:rgb(0%,0%,0%);fill-opacity:1;" d="M 7.230469 11.082031 L 5.074219 11.082031 C 4.871094 11.082031 4.703125 11.25 4.703125 11.453125 L 4.703125 13.769531 C 4.703125 13.976562 4.871094 14.140625 5.074219 14.140625 L 7.230469 14.140625 C 7.4375 14.140625 7.601562 13.976562 7.601562 13.769531 L 7.601562 11.453125 C 7.601562 11.25 7.4375 11.082031 7.230469 11.082031 Z M 6.859375 13.398438 L 5.445312 13.398438 L 5.445312 11.824219 L 6.859375 11.824219 Z M 6.859375 13.398438 "/>
<path style=" stroke:none;fill-rule:nonzero;fill:rgb(0%,0%,0%);fill-opacity:1;" d="M 7.230469 15.070312 L 5.074219 15.070312 C 4.871094 15.070312 4.703125 15.238281 4.703125 15.441406 L 4.703125 17.761719 C 4.703125 17.964844 4.871094 18.132812 5.074219 18.132812 L 7.230469 18.132812 C 7.4375 18.132812 7.601562 17.964844 7.601562 17.761719 L 7.601562 15.441406 C 7.601562 15.238281 7.4375 15.070312 7.230469 15.070312 Z M 6.859375 17.390625 L 5.445312 17.390625 L 5.445312 15.8125 L 6.859375 15.8125 Z M 6.859375 17.390625 "/>
<path style=" stroke:none;fill-rule:nonzero;fill:rgb(0%,0%,0%);fill-opacity:1;" d="M 11.078125 7.09375 L 8.921875 7.09375 C 8.714844 7.09375 8.550781 7.257812 8.550781 7.464844 L 8.550781 9.78125 C 8.550781 9.984375 8.714844 10.152344 8.921875 10.152344 L 11.078125 10.152344 C 11.285156 10.152344 11.449219 9.984375 11.449219 9.78125 L 11.449219 7.464844 C 11.449219 7.257812 11.285156 7.09375 11.078125 7.09375 Z M 10.707031 9.410156 L 9.292969 9.410156 L 9.292969 7.835938 L 10.707031 7.835938 Z M 10.707031 9.410156 "/>
<path style=" stroke:none;fill-rule:nonzero;fill:rgb(0%,0%,0%);fill-opacity:1;" d="M 11.078125 11.082031 L 8.921875 11.082031 C 8.714844 11.082031 8.550781 11.25 8.550781 11.453125 L 8.550781 13.769531 C 8.550781 13.976562 8.714844 14.140625 8.921875 14.140625 L 11.078125 14.140625 C 11.285156 14.140625 11.449219 13.976562 11.449219 13.769531 L 11.449219 11.453125 C 11.449219 11.25 11.285156 11.082031 11.078125 11.082031 Z M 10.707031 13.398438 L 9.292969 13.398438 L 9.292969 11.824219 L 10.707031 11.824219 Z M 10.707031 13.398438 "/>
<path style=" stroke:none;fill-rule:nonzero;fill:rgb(0%,0%,0%);fill-opacity:1;" d="M 11.078125 15.070312 L 8.921875 15.070312 C 8.714844 15.070312 8.550781 15.238281 8.550781 15.441406 L 8.550781 17.761719 C 8.550781 17.964844 8.714844 18.132812 8.921875 18.132812 L 11.078125 18.132812 C 11.285156 18.132812 11.449219 17.964844 11.449219 17.761719 L 11.449219 15.441406 C 11.449219 15.238281 11.285156 15.070312 11.078125 15.070312 Z M 10.707031 17.390625 L 9.292969 17.390625 L 9.292969 15.8125 L 10.707031 15.8125 Z M 10.707031 17.390625 "/>
<path style=" stroke:none;fill-rule:nonzero;fill:rgb(0%,0%,0%);fill-opacity:1;" d="M 14.925781 7.09375 L 12.769531 7.09375 C 12.5625 7.09375 12.398438 7.257812 12.398438 7.464844 L 12.398438 9.78125 C 12.398438 9.984375 12.5625 10.152344 12.769531 10.152344 L 14.925781 10.152344 C 15.128906 10.152344 15.296875 9.984375 15.296875 9.78125 L 15.296875 7.464844 C 15.296875 7.257812 15.128906 7.09375 14.925781 7.09375 Z M 14.554688 9.410156 L 13.140625 9.410156 L 13.140625 7.835938 L 14.554688 7.835938 Z M 14.554688 9.410156 "/>
<path style=" stroke:none;fill-rule:nonzero;fill:rgb(0%,0%,0%);fill-opacity:1;" d="M 14.925781 11.082031 L 12.769531 11.082031 C 12.5625 11.082031 12.398438 11.25 12.398438 11.453125 L 12.398438 17.761719 C 12.398438 17.964844 12.5625 18.132812 12.769531 18.132812 L 14.925781 18.132812 C 15.128906 18.132812 15.296875 17.964844 15.296875 17.761719 L 15.296875 11.453125 C 15.296875 11.25 15.128906 11.082031 14.925781 11.082031 Z M 14.554688 17.390625 L 13.140625 17.390625 L 13.140625 11.824219 L 14.554688 11.824219 Z M 14.554688 17.390625 "/>
</g>
</svg>
